<svg xmlns="http://www.w3.org/2000/svg" version="1.1" xmlns:xlink="http://www.w3.org/1999/xlink" xmlns:svgjs="http://svgjs.dev/svgjs" width="1440" height="565" preserveAspectRatio="none" viewBox="0 0 1440 565"><g mask="url(&quot;#SvgjsMask1008&quot;)" fill="none"><path d="M285.8552201289605 394.0745412392666L180.35992533760015 503.10997247587557 308.4651913354921 537.4356750461849z" fill="rgba(240, 94, 22, 1)" class="triangle-float3"></path><path d="M1199.5,400.285C1223.026,400.912,1242.39,384.537,1254.85,364.572C1268.258,343.089,1279.076,315.888,1265.523,294.496C1252.473,273.899,1223.883,277.075,1199.5,277.209C1175.478,277.341,1147.029,274.586,1134.717,295.213C1122.254,316.092,1136.274,341.053,1149.035,361.751C1160.94,381.06,1176.824,399.681,1199.5,400.285" fill="rgba(240, 94, 22, 1)" class="triangle-float1"></path><path d="M387.401,276.902C436.124,276.733,479.593,249.968,505.504,208.706C533.367,164.334,547.954,108.324,521.749,62.953C495.55,17.591,439.777,3.32,387.401,4.221C336.86,5.09,286.256,23.756,260.823,67.44C235.25,111.365,241.58,166.031,267.868,209.532C293.222,251.487,338.38,277.072,387.401,276.902" fill="rgba(240, 94, 22, 1)" class="triangle-float3"></path><path d="M1505.042,384.37C1558.131,381.681,1587.752,328.834,1613.144,282.134C1636.959,238.333,1659.001,188.372,1635.523,144.389C1611.016,98.478,1557.019,77.009,1505.042,79.62C1457.286,82.019,1420.079,115.464,1395.452,156.45C1369.869,199.028,1354.622,249.372,1376.147,294.139C1400.506,344.799,1448.902,387.214,1505.042,384.37" fill="rgba(240, 94, 22, 1)" class="triangle-float1"></path><path d="M370.81031860737784 378.76759482669013L438.8945651377767 255.94036270417786 316.0673330152644 187.85611617377904 247.98308648486557 310.6833482962913z" fill="rgba(240, 94, 22, 1)" class="triangle-float1"></path><path d="M1122.8528235776598 77.69364365629184L1105.0937472178446 148.9214085174463 1220.8149326894838 139.94614062659207z" fill="rgba(240, 94, 22, 1)" class="triangle-float2"></path><path d="M1015.1027734334166 414.4016668395497L874.6013664637859 444.2661628148149 904.4658624390511 584.7675697844456 1044.967269408682 554.9030738091805z" fill="rgba(240, 94, 22, 1)" class="triangle-float2"></path><path d="M84.74886116671841 217.79902650131862L109.7273772059727 317.98238237957895 209.91073308423302 293.00386634032463 184.93221704497876 192.82051046206433z" fill="rgba(240, 94, 22, 1)" class="triangle-float2"></path><path d="M235.08173974128331 345.992920652696L158.10549610503017 285.8524879172122 97.96506336954641 362.8287315534654 174.94130700579956 422.9691642889492z" fill="rgba(240, 94, 22, 1)" class="triangle-float3"></path><path d="M754.393,522.838C773.671,523.989,794.552,517.345,803.493,500.228C812.018,483.908,801.994,465.654,792.504,449.876C783.425,434.781,771.966,419.815,754.393,418.593C734.889,417.237,714.903,426.524,705.846,443.851C697.274,460.249,704.808,479.149,714.497,494.913C723.607,509.735,737.026,521.801,754.393,522.838" fill="rgba(240, 94, 22, 1)" class="triangle-float3"></path></g><defs><mask id="SvgjsMask1008"><rect width="1440" height="565" fill="#ffffff"></rect></mask><style>
                @keyframes float1 {
                    0%{transform: translate(0, 0)}
                    50%{transform: translate(-10px, 0)}
                    100%{transform: translate(0, 0)}
                }

                .triangle-float1 {
                    animation: float1 5s infinite;
                }

                @keyframes float2 {
                    0%{transform: translate(0, 0)}
                    50%{transform: translate(-5px, -5px)}
                    100%{transform: translate(0, 0)}
                }

                .triangle-float2 {
                    animation: float2 4s infinite;
                }

                @keyframes float3 {
                    0%{transform: translate(0, 0)}
                    50%{transform: translate(0, -10px)}
                    100%{transform: translate(0, 0)}
                }

                .triangle-float3 {
                    animation: float3 6s infinite;
                }
            </style></defs></svg>